# xmcd CD database file
#
# Track frame offsets:
#	150
#	32047
#	58750
#	89625
#	116613
#	141969
#	170185
#	198634
#	228001
#	257699
#
# Disc length: 3759 seconds
#
# Revision: 0
# Processed by: cddbd v1.5PL3 Copyright (c) Steve Scherf et al.
# Submitted via: CDex 1.50
#
DISCID=910ead0a
DTITLE=Llorka - New Comer
DYEAR=2001
DGENRE=Jazz
TTITLE0=The Novel Sound
TTITLE1=Indigo Blues
TTITLE2=Lights Behind Windows
TTITLE3=I Cry [Original Mix]
TTITLE4=Any How
TTITLE5=True to Me
TTITLE6=Lalo Caught Me Dancin'
TTITLE7=My Precious Thing
TTITLE8=The End
TTITLE9=I Cry [alternate take]
EXTD=YEAR: 2001
EXTT0=
EXTT1=
EXTT2=
EXTT3=
EXTT4=
EXTT5=
EXTT6=
EXTT7=
EXTT8=
EXTT9=
PLAYORDER=
